<?xml version="1.0" encoding="utf-8" standalone="no"?>
<!DOCTYPE svg PUBLIC "-//W3C//DTD SVG 1.1//EN"
  "http://www.w3.org/Graphics/SVG/1.1/DTD/svg11.dtd">
<svg xmlns:xlink="http://www.w3.org/1999/xlink" width="576pt" height="432pt" viewBox="0 0 576 432" xmlns="http://www.w3.org/2000/svg" version="1.1">
 <metadata>
  <rdf:RDF xmlns:dc="http://purl.org/dc/elements/1.1/" xmlns:cc="http://creativecommons.org/ns#" xmlns:rdf="http://www.w3.org/1999/02/22-rdf-syntax-ns#">
   <cc:Work>
    <dc:type rdf:resource="http://purl.org/dc/dcmitype/StillImage"/>
    <dc:date>2026-09-02T22:13:34.911854</dc:date>
    <dc:format>image/svg+xml</dc:format>
    <dc:creator>
     <cc:Agent>
      <dc:title>Matplotlib v3.11.1, https://matplotlib.org/</dc:title>
     </cc:Agent>
    </dc:creator>
   </cc:Work>
  </rdf:RDF>
 </metadata>
 <defs>
  <style type="text/css">*{stroke-linejoin: round; stroke-linecap: butt}</style>
 </defs>
 <g id="figure_1">
  <g id="patch_1">
   <path d="M 0 432 
L 576 432 
L 576 0 
L 0 0 
z
" style="fill: #ffffff"/>
  </g>
  <g id="axes_1">
   <g id="patch_2">
    <path d="M 108.364091 319.865156 
L 558.72 319.865156 
L 558.72 26.88 
L 108.364091 26.88 
z
" style="fill: #ffffff"/>
   </g>
   <g id="FillBetweenPolyCollection_1">
    <defs>
     <path id="mfc53776357" d="M 108.364091 -125.452351 
L 108.364091 -125.452351 
L 115.870023 -125.452351 
L 115.870023 -130.342536 
L 123.375955 -130.342536 
L 123.375955 -143.977688 
L 130.881886 -143.977688 
L 130.881886 -152.611344 
L 138.387818 -152.611344 
L 138.387818 -152.611344 
L 145.89375 -152.611344 
L 145.89375 -155.802594 
L 153.399682 -155.802594 
L 153.399682 -163.790383 
L 160.905614 -163.790383 
L 160.905614 -163.790383 
L 168.411545 -163.790383 
L 168.411545 -166.091123 
L 175.917477 -166.091123 
L 175.917477 -167.445704 
L 183.423409 -167.445704 
L 183.423409 -169.197563 
L 190.929341 -169.197563 
L 190.929341 -171.337723 
L 198.435273 -171.337723 
L 198.435273 -176.1097 
L 205.941205 -176.1097 
L 205.941205 -179.521773 
L 213.447136 -179.521773 
L 213.447136 -181.346034 
L 220.953068 -181.346034 
L 220.953068 -183.328008 
L 228.459 -183.328008 
L 228.459 -186.857946 
L 235.964932 -186.857946 
L 235.964932 -188.964799 
L 243.470864 -188.964799 
L 243.470864 -190.167505 
L 258.482727 -190.167505 
L 258.482727 -190.167505 
L 265.988659 -190.167505 
L 265.988659 -191.482396 
L 273.494591 -191.482396 
L 273.494591 -198.878312 
L 281.000523 -198.878312 
L 281.000523 -198.878312 
L 288.506455 -198.878312 
L 288.506455 -198.878312 
L 296.012386 -198.878312 
L 296.012386 -198.878312 
L 303.518318 -198.878312 
L 303.518318 -205.668664 
L 311.02425 -205.668664 
L 311.02425 -209.460395 
L 318.530182 -209.460395 
L 318.530182 -212.069894 
L 326.036114 -212.069894 
L 326.036114 -213.837786 
L 333.542045 -213.837786 
L 333.542045 -216.577606 
L 341.047977 -216.577606 
L 341.047977 -216.577606 
L 348.553909 -216.577606 
L 348.553909 -221.233999 
L 356.059841 -221.233999 
L 356.059841 -227.880458 
L 363.565773 -227.880458 
L 363.565773 -229.515102 
L 371.071705 -229.515102 
L 371.071705 -231.185841 
L 378.577636 -231.185841 
L 378.577636 -234.208782 
L 386.083568 -234.208782 
L 386.083568 -238.794976 
L 393.5895 -238.794976 
L 393.5895 -238.794976 
L 401.095432 -238.794976 
L 401.095432 -238.794976 
L 408.601364 -238.794976 
L 408.601364 -240.998226 
L 416.107295 -240.998226 
L 416.107295 -240.998226 
L 423.613227 -240.998226 
L 423.613227 -240.998226 
L 431.119159 -240.998226 
L 431.119159 -242.300505 
L 438.625091 -242.300505 
L 438.625091 -243.910152 
L 446.131023 -243.910152 
L 446.131023 -247.405716 
L 453.636955 -247.405716 
L 453.636955 -247.405716 
L 461.142886 -247.405716 
L 461.142886 -247.405716 
L 468.648818 -247.405716 
L 468.648818 -252.772889 
L 476.15475 -252.772889 
L 476.15475 -256.459789 
L 483.660682 -256.459789 
L 483.660682 -261.383297 
L 491.166614 -261.383297 
L 491.166614 -263.246561 
L 498.672545 -263.246561 
L 498.672545 -268.286556 
L 506.178477 -268.286556 
L 506.178477 -270.871596 
L 513.684409 -270.871596 
L 513.684409 -272.192988 
L 521.190341 -272.192988 
L 521.190341 -282.648645 
L 528.696273 -282.648645 
L 528.696273 -285.627869 
L 536.202205 -285.627869 
L 536.202205 -287.308688 
L 543.708136 -287.308688 
L 543.708136 -288.643801 
L 551.214068 -288.643801 
L 551.214068 -291.127803 
L 558.72 -291.127803 
L 558.72 -293.596638 
L 558.72 -391.802493 
L 558.72 -391.802493 
L 558.72 -388.683777 
L 551.214068 -388.683777 
L 551.214068 -385.542013 
L 543.708136 -385.542013 
L 543.708136 -383.851928 
L 536.202205 -383.851928 
L 536.202205 -381.722256 
L 528.696273 -381.722256 
L 528.696273 -377.942555 
L 521.190341 -377.942555 
L 521.190341 -364.613364 
L 513.684409 -364.613364 
L 513.684409 -362.921118 
L 506.178477 -362.921118 
L 506.178477 -359.60549 
L 498.672545 -359.60549 
L 498.672545 -353.120978 
L 491.166614 -353.120978 
L 491.166614 -350.717775 
L 483.660682 -350.717775 
L 483.660682 -344.348901 
L 476.15475 -344.348901 
L 476.15475 -339.56187 
L 468.648818 -339.56187 
L 468.648818 -332.563541 
L 461.142886 -332.563541 
L 461.142886 -332.563541 
L 453.636955 -332.563541 
L 453.636955 -332.563541 
L 446.131023 -332.563541 
L 446.131023 -327.986762 
L 438.625091 -327.986762 
L 438.625091 -325.874448 
L 431.119159 -325.874448 
L 431.119159 -324.163164 
L 423.613227 -324.163164 
L 423.613227 -324.163164 
L 416.107295 -324.163164 
L 416.107295 -324.163164 
L 408.601364 -324.163164 
L 408.601364 -321.265094 
L 401.095432 -321.265094 
L 401.095432 -321.265094 
L 393.5895 -321.265094 
L 393.5895 -321.265094 
L 386.083568 -321.265094 
L 386.083568 -315.213817 
L 378.577636 -315.213817 
L 378.577636 -311.207258 
L 371.071705 -311.207258 
L 371.071705 -308.986651 
L 363.565773 -308.986651 
L 363.565773 -306.810609 
L 356.059841 -306.810609 
L 356.059841 -297.916758 
L 348.553909 -297.916758 
L 348.553909 -291.638572 
L 341.047977 -291.638572 
L 341.047977 -291.638572 
L 333.542045 -291.638572 
L 333.542045 -287.929265 
L 326.036114 -287.929265 
L 326.036114 -285.528216 
L 318.530182 -285.528216 
L 318.530182 -281.972217 
L 311.02425 -281.972217 
L 311.02425 -276.779955 
L 303.518318 -276.779955 
L 303.518318 -267.391369 
L 296.012386 -267.391369 
L 296.012386 -267.391369 
L 288.506455 -267.391369 
L 288.506455 -267.391369 
L 281.000523 -267.391369 
L 281.000523 -267.391369 
L 273.494591 -267.391369 
L 273.494591 -257.040719 
L 265.988659 -257.040719 
L 265.988659 -255.18315 
L 258.482727 -255.18315 
L 258.482727 -255.18315 
L 243.470864 -255.18315 
L 243.470864 -253.480901 
L 235.964932 -253.480901 
L 235.964932 -250.488438 
L 228.459 -250.488438 
L 228.459 -245.439837 
L 220.953068 -245.439837 
L 220.953068 -242.584949 
L 213.447136 -242.584949 
L 213.447136 -239.944676 
L 205.941205 -239.944676 
L 205.941205 -234.972691 
L 198.435273 -234.972691 
L 198.435273 -227.930839 
L 190.929341 -227.930839 
L 190.929341 -224.736137 
L 183.423409 -224.736137 
L 183.423409 -222.102661 
L 175.917477 -222.102661 
L 175.917477 -220.054557 
L 168.411545 -220.054557 
L 168.411545 -216.549886 
L 160.905614 -216.549886 
L 160.905614 -216.549886 
L 153.399682 -216.549886 
L 153.399682 -204.087499 
L 145.89375 -204.087499 
L 145.89375 -198.950166 
L 138.387818 -198.950166 
L 138.387818 -198.950166 
L 130.881886 -198.950166 
L 130.881886 -184.427182 
L 123.375955 -184.427182 
L 123.375955 -157.567447 
L 115.870023 -157.567447 
L 115.870023 -125.452351 
L 108.364091 -125.452351 
z
" style="stroke: #c0392b; stroke-opacity: 0.15"/>
    </defs>
    <g clip-path="url(#pa28136cd57)">
     <use xlink:href="#mfc53776357" x="0" y="432" style="fill: #c0392b; fill-opacity: 0.15; stroke: #c0392b; stroke-opacity: 0.15"/>
    </g>
   </g>
   <g id="FillBetweenPolyCollection_2">
    <defs>
     <path id="m64abcafeb6" d="M 108.364091 -125.452351 
L 108.364091 -125.452351 
L 115.870023 -125.452351 
L 115.870023 -126.616283 
L 123.375955 -126.616283 
L 123.375955 -127.196343 
L 130.881886 -127.196343 
L 130.881886 -127.196343 
L 138.387818 -127.196343 
L 138.387818 -129.374527 
L 145.89375 -129.374527 
L 145.89375 -129.374527 
L 153.399682 -129.374527 
L 153.399682 -129.374527 
L 160.905614 -129.374527 
L 160.905614 -130.198438 
L 168.411545 -130.198438 
L 168.411545 -132.414236 
L 175.917477 -132.414236 
L 175.917477 -133.206491 
L 183.423409 -133.206491 
L 183.423409 -135.71757 
L 190.929341 -135.71757 
L 190.929341 -136.53999 
L 198.435273 -136.53999 
L 198.435273 -137.478106 
L 205.941205 -137.478106 
L 205.941205 -137.478106 
L 213.447136 -137.478106 
L 213.447136 -137.478106 
L 220.953068 -137.478106 
L 220.953068 -140.25718 
L 228.459 -140.25718 
L 228.459 -140.25718 
L 235.964932 -140.25718 
L 235.964932 -140.999682 
L 243.470864 -140.999682 
L 243.470864 -146.5608 
L 250.976795 -146.5608 
L 250.976795 -149.800913 
L 258.482727 -149.800913 
L 258.482727 -154.067388 
L 265.988659 -154.067388 
L 265.988659 -157.727709 
L 273.494591 -157.727709 
L 273.494591 -158.762413 
L 281.000523 -158.762413 
L 281.000523 -158.762413 
L 288.506455 -158.762413 
L 288.506455 -163.465051 
L 296.012386 -163.465051 
L 296.012386 -164.379006 
L 303.518318 -164.379006 
L 303.518318 -164.379006 
L 311.02425 -164.379006 
L 311.02425 -165.852427 
L 318.530182 -165.852427 
L 318.530182 -168.758694 
L 326.036114 -168.758694 
L 326.036114 -170.093158 
L 333.542045 -170.093158 
L 333.542045 -171.267815 
L 341.047977 -171.267815 
L 341.047977 -172.188502 
L 348.553909 -172.188502 
L 348.553909 -172.188502 
L 356.059841 -172.188502 
L 356.059841 -173.439095 
L 363.565773 -173.439095 
L 363.565773 -173.439095 
L 371.071705 -173.439095 
L 371.071705 -174.464673 
L 378.577636 -174.464673 
L 378.577636 -177.733345 
L 386.083568 -177.733345 
L 386.083568 -180.386005 
L 393.5895 -180.386005 
L 393.5895 -181.292078 
L 401.095432 -181.292078 
L 401.095432 -182.920435 
L 408.601364 -182.920435 
L 408.601364 -182.920435 
L 416.107295 -182.920435 
L 416.107295 -185.077996 
L 423.613227 -185.077996 
L 423.613227 -187.85563 
L 431.119159 -187.85563 
L 431.119159 -191.706173 
L 438.625091 -191.706173 
L 438.625091 -192.651511 
L 446.131023 -192.651511 
L 446.131023 -194.862711 
L 453.636955 -194.862711 
L 453.636955 -197.589175 
L 461.142886 -197.589175 
L 461.142886 -199.521856 
L 468.648818 -199.521856 
L 468.648818 -200.818043 
L 476.15475 -200.818043 
L 476.15475 -203.006052 
L 483.660682 -203.006052 
L 483.660682 -204.249649 
L 491.166614 -204.249649 
L 491.166614 -207.811165 
L 498.672545 -207.811165 
L 498.672545 -207.811165 
L 506.178477 -207.811165 
L 506.178477 -207.811165 
L 513.684409 -207.811165 
L 513.684409 -207.811165 
L 521.190341 -207.811165 
L 521.190341 -208.784386 
L 528.696273 -208.784386 
L 528.696273 -213.023154 
L 536.202205 -213.023154 
L 536.202205 -218.1298 
L 543.708136 -218.1298 
L 543.708136 -220.249687 
L 551.214068 -220.249687 
L 551.214068 -225.667745 
L 558.72 -225.667745 
L 558.72 -226.909809 
L 558.72 -274.161187 
L 558.72 -274.161187 
L 558.72 -272.653314 
L 551.214068 -272.653314 
L 551.214068 -266.055692 
L 543.708136 -266.055692 
L 543.708136 -263.465279 
L 536.202205 -263.465279 
L 536.202205 -257.20191 
L 528.696273 -257.20191 
L 528.696273 -251.976744 
L 521.190341 -251.976744 
L 521.190341 -250.773651 
L 513.684409 -250.773651 
L 513.684409 -250.773651 
L 506.178477 -250.773651 
L 506.178477 -250.773651 
L 498.672545 -250.773651 
L 498.672545 -250.773651 
L 491.166614 -250.773651 
L 491.166614 -246.361178 
L 483.660682 -246.361178 
L 483.660682 -244.816093 
L 476.15475 -244.816093 
L 476.15475 -242.092487 
L 468.648818 -242.092487 
L 468.648818 -240.475548 
L 461.142886 -240.475548 
L 461.142886 -238.059369 
L 453.636955 -238.059369 
L 453.636955 -234.639306 
L 446.131023 -234.639306 
L 446.131023 -231.855345 
L 438.625091 -231.855345 
L 438.625091 -230.662527 
L 431.119159 -230.662527 
L 431.119159 -225.785158 
L 423.613227 -225.785158 
L 423.613227 -222.247363 
L 416.107295 -222.247363 
L 416.107295 -219.487127 
L 408.601364 -219.487127 
L 408.601364 -219.487127 
L 401.095432 -219.487127 
L 401.095432 -217.397106 
L 393.5895 -217.397106 
L 393.5895 -216.231319 
L 386.083568 -216.231319 
L 386.083568 -212.806097 
L 378.577636 -212.806097 
L 378.577636 -208.55797 
L 371.071705 -208.55797 
L 371.071705 -207.218486 
L 363.565773 -207.218486 
L 363.565773 -207.218486 
L 356.059841 -207.218486 
L 356.059841 -205.581439 
L 348.553909 -205.581439 
L 348.553909 -205.581439 
L 341.047977 -205.581439 
L 341.047977 -204.373551 
L 333.542045 -204.373551 
L 333.542045 -202.828682 
L 326.036114 -202.828682 
L 326.036114 -201.068049 
L 318.530182 -201.068049 
L 318.530182 -197.211443 
L 311.02425 -197.211443 
L 311.02425 -195.243297 
L 303.518318 -195.243297 
L 303.518318 -195.243297 
L 296.012386 -195.243297 
L 296.012386 -194.018511 
L 288.506455 -194.018511 
L 288.506455 -187.654723 
L 281.000523 -187.654723 
L 281.000523 -187.654723 
L 273.494591 -187.654723 
L 273.494591 -186.239861 
L 265.988659 -186.239861 
L 265.988659 -181.183858 
L 258.482727 -181.183858 
L 258.482727 -175.174572 
L 250.976795 -175.174572 
L 250.976795 -170.507472 
L 243.470864 -170.507472 
L 243.470864 -162.215694 
L 235.964932 -162.215694 
L 235.964932 -161.074202 
L 228.459 -161.074202 
L 228.459 -161.074202 
L 220.953068 -161.074202 
L 220.953068 -156.708886 
L 213.447136 -156.708886 
L 213.447136 -156.708886 
L 205.941205 -156.708886 
L 205.941205 -156.708886 
L 198.435273 -156.708886 
L 198.435273 -155.196675 
L 190.929341 -155.196675 
L 190.929341 -153.852092 
L 183.423409 -153.852092 
L 183.423409 -149.607753 
L 175.917477 -149.607753 
L 175.917477 -148.214487 
L 168.411545 -148.214487 
L 168.411545 -144.119348 
L 160.905614 -144.119348 
L 160.905614 -142.495235 
L 153.399682 -142.495235 
L 153.399682 -142.495235 
L 145.89375 -142.495235 
L 145.89375 -142.495235 
L 138.387818 -142.495235 
L 138.387818 -137.733742 
L 130.881886 -137.733742 
L 130.881886 -137.733742 
L 123.375955 -137.733742 
L 123.375955 -136.266989 
L 115.870023 -136.266989 
L 115.870023 -125.452351 
L 108.364091 -125.452351 
z
" style="stroke: #1f5fa8; stroke-opacity: 0.15"/>
    </defs>
    <g clip-path="url(#pa28136cd57)">
     <use xlink:href="#m64abcafeb6" x="0" y="432" style="fill: #1f5fa8; fill-opacity: 0.15; stroke: #1f5fa8; stroke-opacity: 0.15"/>
    </g>
   </g>
   <g id="matplotlib.axis_1">
    <g id="xtick_1">
     <g id="line2d_1">
      <defs>
       <path id="m5f0b60c96f" d="M 0 0 
L 0 3.5 
" style="stroke: #000000; stroke-width: 0.8"/>
      </defs>
      <g>
       <use xlink:href="#m5f0b60c96f" x="108.364091" y="319.865156" style="stroke: #000000; stroke-width: 0.8"/>
      </g>
     </g>
     <g id="text_1">
      <!-- 0 -->
      <g transform="translate(105.182841 334.462812) scale(0.1 -0.1)">
       <defs>
        <path id="DejaVuSans-13" d="M 2034 4250 
Q 1547 4250 1301 3770 
Q 1056 3291 1056 2328 
Q 1056 1369 1301 889 
Q 1547 409 2034 409 
Q 2525 409 2770 889 
Q 3016 1369 3016 2328 
Q 3016 3291 2770 3770 
Q 2525 4250 2034 4250 
z
M 2034 4750 
Q 2819 4750 3233 4129 
Q 3647 3509 3647 2328 
Q 3647 1150 3233 529 
Q 2819 -91 2034 -91 
Q 1250 -91 836 529 
Q 422 1150 422 2328 
Q 422 3509 836 4129 
Q 1250 4750 2034 4750 
z
" transform="scale(0.015625)"/>
       </defs>
       <use xlink:href="#DejaVuSans-13"/>
      </g>
     </g>
    </g>
    <g id="xtick_2">
     <g id="line2d_2">
      <g>
       <use xlink:href="#m5f0b60c96f" x="183.423409" y="319.865156" style="stroke: #000000; stroke-width: 0.8"/>
      </g>
     </g>
     <g id="text_2">
      <!-- 10 -->
      <g transform="translate(177.060909 334.462812) scale(0.1 -0.1)">
       <defs>
        <path id="DejaVuSans-14" d="M 794 531 
L 1825 531 
L 1825 4091 
L 703 3866 
L 703 4441 
L 1819 4666 
L 2450 4666 
L 2450 531 
L 3481 531 
L 3481 0 
L 794 0 
L 794 531 
z
" transform="scale(0.015625)"/>
       </defs>
       <use xlink:href="#DejaVuSans-14"/>
       <use xlink:href="#DejaVuSans-13" transform="translate(63.625 0)"/>
      </g>
     </g>
    </g>
    <g id="xtick_3">
     <g id="line2d_3">
      <g>
       <use xlink:href="#m5f0b60c96f" x="258.482727" y="319.865156" style="stroke: #000000; stroke-width: 0.8"/>
      </g>
     </g>
     <g id="text_3">
      <!-- 20 -->
      <g transform="translate(252.120227 334.462812) scale(0.1 -0.1)">
       <defs>
        <path id="DejaVuSans-15" d="M 1228 531 
L 3431 531 
L 3431 0 
L 469 0 
L 469 531 
Q 828 903 1448 1529 
Q 2069 2156 2228 2338 
Q 2531 2678 2651 2914 
Q 2772 3150 2772 3378 
Q 2772 3750 2511 3984 
Q 2250 4219 1831 4219 
Q 1534 4219 1204 4116 
Q 875 4013 500 3803 
L 500 4441 
Q 881 4594 1212 4672 
Q 1544 4750 1819 4750 
Q 2544 4750 2975 4387 
Q 3406 4025 3406 3419 
Q 3406 3131 3298 2873 
Q 3191 2616 2906 2266 
Q 2828 2175 2409 1742 
Q 1991 1309 1228 531 
z
" transform="scale(0.015625)"/>
       </defs>
       <use xlink:href="#DejaVuSans-15"/>
       <use xlink:href="#DejaVuSans-13" transform="translate(63.625 0)"/>
      </g>
     </g>
    </g>
    <g id="xtick_4">
     <g id="line2d_4">
      <g>
       <use xlink:href="#m5f0b60c96f" x="333.542045" y="319.865156" style="stroke: #000000; stroke-width: 0.8"/>
      </g>
     </g>
     <g id="text_4">
      <!-- 30 -->
      <g transform="translate(327.179545 334.462812) scale(0.1 -0.1)">
       <defs>
        <path id="DejaVuSans-16" d="M 2597 2516 
Q 3050 2419 3304 2112 
Q 3559 1806 3559 1356 
Q 3559 666 3084 287 
Q 2609 -91 1734 -91 
Q 1441 -91 1130 -33 
Q 819 25 488 141 
L 488 750 
Q 750 597 1062 519 
Q 1375 441 1716 441 
Q 2309 441 2620 675 
Q 2931 909 2931 1356 
Q 2931 1769 2642 2001 
Q 2353 2234 1838 2234 
L 1294 2234 
L 1294 2753 
L 1863 2753 
Q 2328 2753 2575 2939 
Q 2822 3125 2822 3475 
Q 2822 3834 2567 4026 
Q 2313 4219 1838 4219 
Q 1578 4219 1281 4162 
Q 984 4106 628 3988 
L 628 4550 
Q 988 4650 1302 4700 
Q 1616 4750 1894 4750 
Q 2613 4750 3031 4423 
Q 3450 4097 3450 3541 
Q 3450 3153 3228 2886 
Q 3006 2619 2597 2516 
z
" transform="scale(0.015625)"/>
       </defs>
       <use xlink:href="#DejaVuSans-16"/>
       <use xlink:href="#DejaVuSans-13" transform="translate(63.625 0)"/>
      </g>
     </g>
    </g>
    <g id="xtick_5">
     <g id="line2d_5">
      <g>
       <use xlink:href="#m5f0b60c96f" x="408.601364" y="319.865156" style="stroke: #000000; stroke-width: 0.8"/>
      </g>
     </g>
     <g id="text_5">
      <!-- 40 -->
      <g transform="translate(402.238864 334.462812) scale(0.1 -0.1)">
       <defs>
        <path id="DejaVuSans-17" d="M 2419 4116 
L 825 1625 
L 2419 1625 
L 2419 4116 
z
M 2253 4666 
L 3047 4666 
L 3047 1625 
L 3713 1625 
L 3713 1100 
L 3047 1100 
L 3047 0 
L 2419 0 
L 2419 1100 
L 313 1100 
L 313 1709 
L 2253 4666 
z
" transform="scale(0.015625)"/>
       </defs>
       <use xlink:href="#DejaVuSans-17"/>
       <use xlink:href="#DejaVuSans-13" transform="translate(63.625 0)"/>
      </g>
     </g>
    </g>
    <g id="xtick_6">
     <g id="line2d_6">
      <g>
       <use xlink:href="#m5f0b60c96f" x="483.660682" y="319.865156" style="stroke: #000000; stroke-width: 0.8"/>
      </g>
     </g>
     <g id="text_6">
      <!-- 50 -->
      <g transform="translate(477.298182 334.462812) scale(0.1 -0.1)">
       <defs>
        <path id="DejaVuSans-18" d="M 691 4666 
L 3169 4666 
L 3169 4134 
L 1269 4134 
L 1269 2991 
Q 1406 3038 1543 3061 
Q 1681 3084 1819 3084 
Q 2600 3084 3056 2656 
Q 3513 2228 3513 1497 
Q 3513 744 3044 326 
Q 2575 -91 1722 -91 
Q 1428 -91 1123 -41 
Q 819 9 494 109 
L 494 744 
Q 775 591 1075 516 
Q 1375 441 1709 441 
Q 2250 441 2565 725 
Q 2881 1009 2881 1497 
Q 2881 1984 2565 2268 
Q 2250 2553 1709 2553 
Q 1456 2553 1204 2497 
Q 953 2441 691 2322 
L 691 4666 
z
" transform="scale(0.015625)"/>
       </defs>
       <use xlink:href="#DejaVuSans-18"/>
       <use xlink:href="#DejaVuSans-13" transform="translate(63.625 0)"/>
      </g>
     </g>
    </g>
    <g id="xtick_7">
     <g id="line2d_7">
      <g>
       <use xlink:href="#m5f0b60c96f" x="558.72" y="319.865156" style="stroke: #000000; stroke-width: 0.8"/>
      </g>
     </g>
     <g id="text_7">
      <!-- 60 -->
      <g transform="translate(552.3575 334.462812) scale(0.1 -0.1)">
       <defs>
        <path id="DejaVuSans-19" d="M 2113 2584 
Q 1688 2584 1439 2293 
Q 1191 2003 1191 1497 
Q 1191 994 1439 701 
Q 1688 409 2113 409 
Q 2538 409 2786 701 
Q 3034 994 3034 1497 
Q 3034 2003 2786 2293 
Q 2538 2584 2113 2584 
z
M 3366 4563 
L 3366 3988 
Q 3128 4100 2886 4159 
Q 2644 4219 2406 4219 
Q 1781 4219 1451 3797 
Q 1122 3375 1075 2522 
Q 1259 2794 1537 2939 
Q 1816 3084 2150 3084 
Q 2853 3084 3261 2657 
Q 3669 2231 3669 1497 
Q 3669 778 3244 343 
Q 2819 -91 2113 -91 
Q 1303 -91 875 529 
Q 447 1150 447 2328 
Q 447 3434 972 4092 
Q 1497 4750 2381 4750 
Q 2619 4750 2861 4703 
Q 3103 4656 3366 4563 
z
" transform="scale(0.015625)"/>
       </defs>
       <use xlink:href="#DejaVuSans-19"/>
       <use xlink:href="#DejaVuSans-13" transform="translate(63.625 0)"/>
      </g>
     </g>
    </g>
    <g id="text_8">
     <!-- Jours depuis le temps zéro (première prescription) -->
     <g transform="translate(207.998295 348.863594) scale(0.1 -0.1)">
      <defs>
       <path id="DejaVuSans-2d" d="M 628 4666 
L 1259 4666 
L 1259 325 
Q 1259 -519 939 -900 
Q 619 -1281 -91 -1281 
L -331 -1281 
L -331 -750 
L -134 -750 
Q 284 -750 456 -515 
Q 628 -281 628 325 
L 628 4666 
z
" transform="scale(0.015625)"/>
       <path id="DejaVuSans-52" d="M 1959 3097 
Q 1497 3097 1228 2736 
Q 959 2375 959 1747 
Q 959 1119 1226 758 
Q 1494 397 1959 397 
Q 2419 397 2687 759 
Q 2956 1122 2956 1747 
Q 2956 2369 2687 2733 
Q 2419 3097 1959 3097 
z
M 1959 3584 
Q 2709 3584 3137 3096 
Q 3566 2609 3566 1747 
Q 3566 888 3137 398 
Q 2709 -91 1959 -91 
Q 1206 -91 779 398 
Q 353 888 353 1747 
Q 353 2609 779 3096 
Q 1206 3584 1959 3584 
z
" transform="scale(0.015625)"/>
       <path id="DejaVuSans-58" d="M 544 1381 
L 544 3500 
L 1119 3500 
L 1119 1403 
Q 1119 906 1312 657 
Q 1506 409 1894 409 
Q 2359 409 2629 706 
Q 2900 1003 2900 1516 
L 2900 3500 
L 3475 3500 
L 3475 0 
L 2900 0 
L 2900 538 
Q 2691 219 2414 64 
Q 2138 -91 1772 -91 
Q 1169 -91 856 284 
Q 544 659 544 1381 
z
M 1991 3584 
L 1991 3584 
z
" transform="scale(0.015625)"/>
       <path id="DejaVuSans-55" d="M 2631 2963 
Q 2534 3019 2420 3045 
Q 2306 3072 2169 3072 
Q 1681 3072 1420 2755 
Q 1159 2438 1159 1844 
L 1159 0 
L 581 0 
L 581 3500 
L 1159 3500 
L 1159 2956 
Q 1341 3275 1631 3429 
Q 1922 3584 2338 3584 
Q 2397 3584 2469 3576 
Q 2541 3569 2628 3553 
L 2631 2963 
z
" transform="scale(0.015625)"/>
       <path id="DejaVuSans-56" d="M 2834 3397 
L 2834 2853 
Q 2591 2978 2328 3040 
Q 2066 3103 1784 3103 
Q 1356 3103 1142 2972 
Q 928 2841 928 2578 
Q 928 2378 1081 2264 
Q 1234 2150 1697 2047 
L 1894 2003 
Q 2506 1872 2764 1633 
Q 3022 1394 3022 966 
Q 3022 478 2636 193 
Q 2250 -91 1575 -91 
Q 1294 -91 989 -36 
Q 684 19 347 128 
L 347 722 
Q 666 556 975 473 
Q 1284 391 1588 391 
Q 1994 391 2212 530 
Q 2431 669 2431 922 
Q 2431 1156 2273 1281 
Q 2116 1406 1581 1522 
L 1381 1569 
Q 847 1681 609 1914 
Q 372 2147 372 2553 
Q 372 3047 722 3315 
Q 1072 3584 1716 3584 
Q 2034 3584 2315 3537 
Q 2597 3491 2834 3397 
z
" transform="scale(0.015625)"/>
       <path id="DejaVuSans-3" transform="scale(0.015625)"/>
       <path id="DejaVuSans-47" d="M 2906 2969 
L 2906 4863 
L 3481 4863 
L 3481 0 
L 2906 0 
L 2906 525 
Q 2725 213 2448 61 
Q 2172 -91 1784 -91 
Q 1150 -91 751 415 
Q 353 922 353 1747 
Q 353 2572 751 3078 
Q 1150 3584 1784 3584 
Q 2172 3584 2448 3432 
Q 2725 3281 2906 2969 
z
M 947 1747 
Q 947 1113 1208 752 
Q 1469 391 1925 391 
Q 2381 391 2643 752 
Q 2906 1113 2906 1747 
Q 2906 2381 2643 2742 
Q 2381 3103 1925 3103 
Q 1469 3103 1208 2742 
Q 947 2381 947 1747 
z
" transform="scale(0.015625)"/>
       <path id="DejaVuSans-48" d="M 3597 1894 
L 3597 1613 
L 953 1613 
Q 991 1019 1311 708 
Q 1631 397 2203 397 
Q 2534 397 2845 478 
Q 3156 559 3463 722 
L 3463 178 
Q 3153 47 2828 -22 
Q 2503 -91 2169 -91 
Q 1331 -91 842 396 
Q 353 884 353 1716 
Q 353 2575 817 3079 
Q 1281 3584 2069 3584 
Q 2775 3584 3186 3129 
Q 3597 2675 3597 1894 
z
M 3022 2063 
Q 3016 2534 2758 2815 
Q 2500 3097 2075 3097 
Q 1594 3097 1305 2825 
Q 1016 2553 972 2059 
L 3022 2063 
z
" transform="scale(0.015625)"/>
       <path id="DejaVuSans-53" d="M 1159 525 
L 1159 -1331 
L 581 -1331 
L 581 3500 
L 1159 3500 
L 1159 2969 
Q 1341 3281 1617 3432 
Q 1894 3584 2278 3584 
Q 2916 3584 3314 3078 
Q 3713 2572 3713 1747 
Q 3713 922 3314 415 
Q 2916 -91 2278 -91 
Q 1894 -91 1617 61 
Q 1341 213 1159 525 
z
M 3116 1747 
Q 3116 2381 2855 2742 
Q 2594 3103 2138 3103 
Q 1681 3103 1420 2742 
Q 1159 2381 1159 1747 
Q 1159 1113 1420 752 
Q 1681 391 2138 391 
Q 2594 391 2855 752 
Q 3116 1113 3116 1747 
z
" transform="scale(0.015625)"/>
       <path id="DejaVuSans-4c" d="M 603 3500 
L 1178 3500 
L 1178 0 
L 603 0 
L 603 3500 
z
M 603 4863 
L 1178 4863 
L 1178 4134 
L 603 4134 
L 603 4863 
z
" transform="scale(0.015625)"/>
       <path id="DejaVuSans-4f" d="M 603 4863 
L 1178 4863 
L 1178 0 
L 603 0 
L 603 4863 
z
" transform="scale(0.015625)"/>
       <path id="DejaVuSans-57" d="M 1172 4494 
L 1172 3500 
L 2356 3500 
L 2356 3053 
L 1172 3053 
L 1172 1153 
Q 1172 725 1289 603 
Q 1406 481 1766 481 
L 2356 481 
L 2356 0 
L 1766 0 
Q 1100 0 847 248 
Q 594 497 594 1153 
L 594 3053 
L 172 3053 
L 172 3500 
L 594 3500 
L 594 4494 
L 1172 4494 
z
" transform="scale(0.015625)"/>
       <path id="DejaVuSans-50" d="M 3328 2828 
Q 3544 3216 3844 3400 
Q 4144 3584 4550 3584 
Q 5097 3584 5394 3201 
Q 5691 2819 5691 2113 
L 5691 0 
L 5113 0 
L 5113 2094 
Q 5113 2597 4934 2840 
Q 4756 3084 4391 3084 
Q 3944 3084 3684 2787 
Q 3425 2491 3425 1978 
L 3425 0 
L 2847 0 
L 2847 2094 
Q 2847 2600 2669 2842 
Q 2491 3084 2119 3084 
Q 1678 3084 1418 2786 
Q 1159 2488 1159 1978 
L 1159 0 
L 581 0 
L 581 3500 
L 1159 3500 
L 1159 2956 
Q 1356 3278 1631 3431 
Q 1906 3584 2284 3584 
Q 2666 3584 2933 3390 
Q 3200 3197 3328 2828 
z
" transform="scale(0.015625)"/>
       <path id="DejaVuSans-5d" d="M 353 3500 
L 3084 3500 
L 3084 2975 
L 922 459 
L 3084 459 
L 3084 0 
L 275 0 
L 275 525 
L 2438 3041 
L 353 3041 
L 353 3500 
z
" transform="scale(0.015625)"/>
       <path id="DejaVuSans-ab" d="M 3597 1894 
L 3597 1613 
L 953 1613 
Q 991 1019 1311 708 
Q 1631 397 2203 397 
Q 2534 397 2845 478 
Q 3156 559 3463 722 
L 3463 178 
Q 3153 47 2828 -22 
Q 2503 -91 2169 -91 
Q 1331 -91 842 396 
Q 353 884 353 1716 
Q 353 2575 817 3079 
Q 1281 3584 2069 3584 
Q 2775 3584 3186 3129 
Q 3597 2675 3597 1894 
z
M 3022 2063 
Q 3016 2534 2758 2815 
Q 2500 3097 2075 3097 
Q 1594 3097 1305 2825 
Q 1016 2553 972 2059 
L 3022 2063 
z
M 2468 5119 
L 3090 5119 
L 2072 3944 
L 1593 3944 
L 2468 5119 
z
" transform="scale(0.015625)"/>
       <path id="DejaVuSans-b" d="M 1984 4856 
Q 1566 4138 1362 3434 
Q 1159 2731 1159 2009 
Q 1159 1288 1364 580 
Q 1569 -128 1984 -844 
L 1484 -844 
Q 1016 -109 783 600 
Q 550 1309 550 2009 
Q 550 2706 781 3412 
Q 1013 4119 1484 4856 
L 1984 4856 
z
" transform="scale(0.015625)"/>
       <path id="DejaVuSans-aa" d="M 3597 1894 
L 3597 1613 
L 953 1613 
Q 991 1019 1311 708 
Q 1631 397 2203 397 
Q 2534 397 2845 478 
Q 3156 559 3463 722 
L 3463 178 
Q 3153 47 2828 -22 
Q 2503 -91 2169 -91 
Q 1331 -91 842 396 
Q 353 884 353 1716 
Q 353 2575 817 3079 
Q 1281 3584 2069 3584 
Q 2775 3584 3186 3129 
Q 3597 2675 3597 1894 
z
M 3022 2063 
Q 3016 2534 2758 2815 
Q 2500 3097 2075 3097 
Q 1594 3097 1305 2825 
Q 1016 2553 972 2059 
L 3022 2063 
z
M 1581 5119 
L 2462 3950 
L 1984 3950 
L 965 5119 
L 1581 5119 
z
" transform="scale(0.015625)"/>
       <path id="DejaVuSans-46" d="M 3122 3366 
L 3122 2828 
Q 2878 2963 2633 3030 
Q 2388 3097 2138 3097 
Q 1578 3097 1268 2742 
Q 959 2388 959 1747 
Q 959 1106 1268 751 
Q 1578 397 2138 397 
Q 2388 397 2633 464 
Q 2878 531 3122 666 
L 3122 134 
Q 2881 22 2623 -34 
Q 2366 -91 2075 -91 
Q 1284 -91 818 406 
Q 353 903 353 1747 
Q 353 2603 823 3093 
Q 1294 3584 2113 3584 
Q 2378 3584 2631 3529 
Q 2884 3475 3122 3366 
z
" transform="scale(0.015625)"/>
       <path id="DejaVuSans-51" d="M 3513 2113 
L 3513 0 
L 2938 0 
L 2938 2094 
Q 2938 2591 2744 2837 
Q 2550 3084 2163 3084 
Q 1697 3084 1428 2787 
Q 1159 2491 1159 1978 
L 1159 0 
L 581 0 
L 581 3500 
L 1159 3500 
L 1159 2956 
Q 1366 3272 1645 3428 
Q 1925 3584 2291 3584 
Q 2894 3584 3203 3211 
Q 3513 2838 3513 2113 
z
" transform="scale(0.015625)"/>
       <path id="DejaVuSans-c" d="M 513 4856 
L 1013 4856 
Q 1481 4119 1714 3412 
Q 1947 2706 1947 2009 
Q 1947 1309 1714 600 
Q 1481 -109 1013 -844 
L 513 -844 
Q 928 -128 1133 580 
Q 1338 1288 1338 2009 
Q 1338 2731 1133 3434 
Q 928 4138 513 4856 
z
" transform="scale(0.015625)"/>
      </defs>
      <use xlink:href="#DejaVuSans-2d"/>
      <use xlink:href="#DejaVuSans-52" transform="translate(29.5 0)"/>
      <use xlink:href="#DejaVuSans-58" transform="translate(90.6875 0)"/>
      <use xlink:href="#DejaVuSans-55" transform="translate(154.0625 0)"/>
      <use xlink:href="#DejaVuSans-56" transform="translate(195.171875 0)"/>
      <use xlink:href="#DejaVuSans-3" transform="translate(247.265625 0)"/>
      <use xlink:href="#DejaVuSans-47" transform="translate(279.046875 0)"/>
      <use xlink:href="#DejaVuSans-48" transform="translate(342.53125 0)"/>
      <use xlink:href="#DejaVuSans-53" transform="translate(404.0625 0)"/>
      <use xlink:href="#DejaVuSans-58" transform="translate(467.546875 0)"/>
      <use xlink:href="#DejaVuSans-4c" transform="translate(530.921875 0)"/>
      <use xlink:href="#DejaVuSans-56" transform="translate(558.703125 0)"/>
      <use xlink:href="#DejaVuSans-3" transform="translate(610.796875 0)"/>
      <use xlink:href="#DejaVuSans-4f" transform="translate(642.578125 0)"/>
      <use xlink:href="#DejaVuSans-48" transform="translate(670.359375 0)"/>
      <use xlink:href="#DejaVuSans-3" transform="translate(731.890625 0)"/>
      <use xlink:href="#DejaVuSans-57" transform="translate(763.671875 0)"/>
      <use xlink:href="#DejaVuSans-48" transform="translate(802.875 0)"/>
      <use xlink:href="#DejaVuSans-50" transform="translate(864.40625 0)"/>
      <use xlink:href="#DejaVuSans-53" transform="translate(961.8125 0)"/>
      <use xlink:href="#DejaVuSans-56" transform="translate(1025.296875 0)"/>
      <use xlink:href="#DejaVuSans-3" transform="translate(1077.390625 0)"/>
      <use xlink:href="#DejaVuSans-5d" transform="translate(1109.171875 0)"/>
      <use xlink:href="#DejaVuSans-ab" transform="translate(1161.65625 0)"/>
      <use xlink:href="#DejaVuSans-55" transform="translate(1223.1875 0)"/>
      <use xlink:href="#DejaVuSans-52" transform="translate(1262.09375 0)"/>
      <use xlink:href="#DejaVuSans-3" transform="translate(1323.28125 0)"/>
      <use xlink:href="#DejaVuSans-b" transform="translate(1355.0625 0)"/>
      <use xlink:href="#DejaVuSans-53" transform="translate(1394.078125 0)"/>
      <use xlink:href="#DejaVuSans-55" transform="translate(1457.5625 0)"/>
      <use xlink:href="#DejaVuSans-48" transform="translate(1496.46875 0)"/>
      <use xlink:href="#DejaVuSans-50" transform="translate(1558 0)"/>
      <use xlink:href="#DejaVuSans-4c" transform="translate(1655.40625 0)"/>
      <use xlink:href="#DejaVuSans-aa" transform="translate(1683.1875 0)"/>
      <use xlink:href="#DejaVuSans-55" transform="translate(1744.71875 0)"/>
      <use xlink:href="#DejaVuSans-48" transform="translate(1783.625 0)"/>
      <use xlink:href="#DejaVuSans-3" transform="translate(1845.15625 0)"/>
      <use xlink:href="#DejaVuSans-53" transform="translate(1876.9375 0)"/>
      <use xlink:href="#DejaVuSans-55" transform="translate(1940.421875 0)"/>
      <use xlink:href="#DejaVuSans-48" transform="translate(1979.328125 0)"/>
      <use xlink:href="#DejaVuSans-56" transform="translate(2040.859375 0)"/>
      <use xlink:href="#DejaVuSans-46" transform="translate(2092.953125 0)"/>
      <use xlink:href="#DejaVuSans-55" transform="translate(2147.9375 0)"/>
      <use xlink:href="#DejaVuSans-4c" transform="translate(2189.046875 0)"/>
      <use xlink:href="#DejaVuSans-53" transform="translate(2216.828125 0)"/>
      <use xlink:href="#DejaVuSans-57" transform="translate(2280.3125 0)"/>
      <use xlink:href="#DejaVuSans-4c" transform="translate(2319.515625 0)"/>
      <use xlink:href="#DejaVuSans-52" transform="translate(2347.296875 0)"/>
      <use xlink:href="#DejaVuSans-51" transform="translate(2408.484375 0)"/>
      <use xlink:href="#DejaVuSans-c" transform="translate(2471.859375 0)"/>
     </g>
    </g>
   </g>
   <g id="matplotlib.axis_2">
    <g id="ytick_1">
     <g id="line2d_8">
      <defs>
       <path id="mf425761ad5" d="M 0 0 
L -3.5 0 
" style="stroke: #000000; stroke-width: 0.8"/>
      </defs>
      <g>
       <use xlink:href="#mf425761ad5" x="108.364091" y="306.547649" style="stroke: #000000; stroke-width: 0.8"/>
      </g>
     </g>
     <g id="text_9">
      <!-- 0.000 -->
      <g transform="translate(72.735966 310.346477) scale(0.1 -0.1)">
       <defs>
        <path id="DejaVuSans-11" d="M 684 794 
L 1344 794 
L 1344 0 
L 684 0 
L 684 794 
z
" transform="scale(0.015625)"/>
       </defs>
       <use xlink:href="#DejaVuSans-13"/>
       <use xlink:href="#DejaVuSans-11" transform="translate(63.625 0)"/>
       <use xlink:href="#DejaVuSans-13" transform="translate(95.40625 0)"/>
       <use xlink:href="#DejaVuSans-13" transform="translate(159.03125 0)"/>
       <use xlink:href="#DejaVuSans-13" transform="translate(222.65625 0)"/>
      </g>
     </g>
    </g>
    <g id="ytick_2">
     <g id="line2d_9">
      <g>
       <use xlink:href="#mf425761ad5" x="108.364091" y="257.419458" style="stroke: #000000; stroke-width: 0.8"/>
      </g>
     </g>
     <g id="text_10">
      <!-- 0.005 -->
      <g transform="translate(72.735966 261.218286) scale(0.1 -0.1)">
       <use xlink:href="#DejaVuSans-13"/>
       <use xlink:href="#DejaVuSans-11" transform="translate(63.625 0)"/>
       <use xlink:href="#DejaVuSans-13" transform="translate(95.40625 0)"/>
       <use xlink:href="#DejaVuSans-13" transform="translate(159.03125 0)"/>
       <use xlink:href="#DejaVuSans-18" transform="translate(222.65625 0)"/>
      </g>
     </g>
    </g>
    <g id="ytick_3">
     <g id="line2d_10">
      <g>
       <use xlink:href="#mf425761ad5" x="108.364091" y="208.291267" style="stroke: #000000; stroke-width: 0.8"/>
      </g>
     </g>
     <g id="text_11">
      <!-- 0.010 -->
      <g transform="translate(72.735966 212.090095) scale(0.1 -0.1)">
       <use xlink:href="#DejaVuSans-13"/>
       <use xlink:href="#DejaVuSans-11" transform="translate(63.625 0)"/>
       <use xlink:href="#DejaVuSans-13" transform="translate(95.40625 0)"/>
       <use xlink:href="#DejaVuSans-14" transform="translate(159.03125 0)"/>
       <use xlink:href="#DejaVuSans-13" transform="translate(222.65625 0)"/>
      </g>
     </g>
    </g>
    <g id="ytick_4">
     <g id="line2d_11">
      <g>
       <use xlink:href="#mf425761ad5" x="108.364091" y="159.163075" style="stroke: #000000; stroke-width: 0.8"/>
      </g>
     </g>
     <g id="text_12">
      <!-- 0.015 -->
      <g transform="translate(72.735966 162.961904) scale(0.1 -0.1)">
       <use xlink:href="#DejaVuSans-13"/>
       <use xlink:href="#DejaVuSans-11" transform="translate(63.625 0)"/>
       <use xlink:href="#DejaVuSans-13" transform="translate(95.40625 0)"/>
       <use xlink:href="#DejaVuSans-14" transform="translate(159.03125 0)"/>
       <use xlink:href="#DejaVuSans-18" transform="translate(222.65625 0)"/>
      </g>
     </g>
    </g>
    <g id="ytick_5">
     <g id="line2d_12">
      <g>
       <use xlink:href="#mf425761ad5" x="108.364091" y="110.034884" style="stroke: #000000; stroke-width: 0.8"/>
      </g>
     </g>
     <g id="text_13">
      <!-- 0.020 -->
      <g transform="translate(72.735966 113.833712) scale(0.1 -0.1)">
       <use xlink:href="#DejaVuSans-13"/>
       <use xlink:href="#DejaVuSans-11" transform="translate(63.625 0)"/>
       <use xlink:href="#DejaVuSans-13" transform="translate(95.40625 0)"/>
       <use xlink:href="#DejaVuSans-15" transform="translate(159.03125 0)"/>
       <use xlink:href="#DejaVuSans-13" transform="translate(222.65625 0)"/>
      </g>
     </g>
    </g>
    <g id="ytick_6">
     <g id="line2d_13">
      <g>
       <use xlink:href="#mf425761ad5" x="108.364091" y="60.906693" style="stroke: #000000; stroke-width: 0.8"/>
      </g>
     </g>
     <g id="text_14">
      <!-- 0.025 -->
      <g transform="translate(72.735966 64.705521) scale(0.1 -0.1)">
       <use xlink:href="#DejaVuSans-13"/>
       <use xlink:href="#DejaVuSans-11" transform="translate(63.625 0)"/>
       <use xlink:href="#DejaVuSans-13" transform="translate(95.40625 0)"/>
       <use xlink:href="#DejaVuSans-15" transform="translate(159.03125 0)"/>
       <use xlink:href="#DejaVuSans-18" transform="translate(222.65625 0)"/>
      </g>
     </g>
    </g>
    <g id="text_15">
     <!-- Incidence cumulée d'infarctus du myocarde (pondérée IPTW) -->
     <g transform="translate(66.333622 326.196797) rotate(-90) scale(0.1 -0.1)">
      <defs>
       <path id="DejaVuSans-2c" d="M 628 4666 
L 1259 4666 
L 1259 0 
L 628 0 
L 628 4666 
z
" transform="scale(0.015625)"/>
       <path id="DejaVuSans-a" d="M 1147 4666 
L 1147 2931 
L 616 2931 
L 616 4666 
L 1147 4666 
z
" transform="scale(0.015625)"/>
       <path id="DejaVuSans-49" d="M 2375 4863 
L 2375 4384 
L 1825 4384 
Q 1516 4384 1395 4259 
Q 1275 4134 1275 3809 
L 1275 3500 
L 2222 3500 
L 2222 3053 
L 1275 3053 
L 1275 0 
L 697 0 
L 697 3053 
L 147 3053 
L 147 3500 
L 697 3500 
L 697 3744 
Q 697 4328 969 4595 
Q 1241 4863 1831 4863 
L 2375 4863 
z
" transform="scale(0.015625)"/>
       <path id="DejaVuSans-44" d="M 2194 1759 
Q 1497 1759 1228 1600 
Q 959 1441 959 1056 
Q 959 750 1161 570 
Q 1363 391 1709 391 
Q 2188 391 2477 730 
Q 2766 1069 2766 1631 
L 2766 1759 
L 2194 1759 
z
M 3341 1997 
L 3341 0 
L 2766 0 
L 2766 531 
Q 2569 213 2275 61 
Q 1981 -91 1556 -91 
Q 1019 -91 701 211 
Q 384 513 384 1019 
Q 384 1609 779 1909 
Q 1175 2209 1959 2209 
L 2766 2209 
L 2766 2266 
Q 2766 2663 2505 2880 
Q 2244 3097 1772 3097 
Q 1472 3097 1187 3025 
Q 903 2953 641 2809 
L 641 3341 
Q 956 3463 1253 3523 
Q 1550 3584 1831 3584 
Q 2591 3584 2966 3190 
Q 3341 2797 3341 1997 
z
" transform="scale(0.015625)"/>
       <path id="DejaVuSans-5c" d="M 2059 -325 
Q 1816 -950 1584 -1140 
Q 1353 -1331 966 -1331 
L 506 -1331 
L 506 -850 
L 844 -850 
Q 1081 -850 1212 -737 
Q 1344 -625 1503 -206 
L 1606 56 
L 191 3500 
L 800 3500 
L 1894 763 
L 2988 3500 
L 3597 3500 
L 2059 -325 
z
" transform="scale(0.015625)"/>
       <path id="DejaVuSans-33" d="M 1259 4147 
L 1259 2394 
L 2053 2394 
Q 2494 2394 2734 2622 
Q 2975 2850 2975 3272 
Q 2975 3691 2734 3919 
Q 2494 4147 2053 4147 
L 1259 4147 
z
M 628 4666 
L 2053 4666 
Q 2838 4666 3239 4311 
Q 3641 3956 3641 3272 
Q 3641 2581 3239 2228 
Q 2838 1875 2053 1875 
L 1259 1875 
L 1259 0 
L 628 0 
L 628 4666 
z
" transform="scale(0.015625)"/>
       <path id="DejaVuSans-37" d="M -19 4666 
L 3928 4666 
L 3928 4134 
L 2272 4134 
L 2272 0 
L 1638 0 
L 1638 4134 
L -19 4134 
L -19 4666 
z
" transform="scale(0.015625)"/>
       <path id="DejaVuSans-3a" d="M 213 4666 
L 850 4666 
L 1831 722 
L 2809 4666 
L 3519 4666 
L 4500 722 
L 5478 4666 
L 6119 4666 
L 4947 0 
L 4153 0 
L 3169 4050 
L 2175 0 
L 1381 0 
L 213 4666 
z
" transform="scale(0.015625)"/>
      </defs>
      <use xlink:href="#DejaVuSans-2c"/>
      <use xlink:href="#DejaVuSans-51" transform="translate(29.5 0)"/>
      <use xlink:href="#DejaVuSans-46" transform="translate(92.875 0)"/>
      <use xlink:href="#DejaVuSans-4c" transform="translate(147.859375 0)"/>
      <use xlink:href="#DejaVuSans-47" transform="translate(175.640625 0)"/>
      <use xlink:href="#DejaVuSans-48" transform="translate(239.125 0)"/>
      <use xlink:href="#DejaVuSans-51" transform="translate(300.65625 0)"/>
      <use xlink:href="#DejaVuSans-46" transform="translate(364.03125 0)"/>
      <use xlink:href="#DejaVuSans-48" transform="translate(419.015625 0)"/>
      <use xlink:href="#DejaVuSans-3" transform="translate(480.546875 0)"/>
      <use xlink:href="#DejaVuSans-46" transform="translate(512.328125 0)"/>
      <use xlink:href="#DejaVuSans-58" transform="translate(567.3125 0)"/>
      <use xlink:href="#DejaVuSans-50" transform="translate(630.6875 0)"/>
      <use xlink:href="#DejaVuSans-58" transform="translate(728.09375 0)"/>
      <use xlink:href="#DejaVuSans-4f" transform="translate(791.46875 0)"/>
      <use xlink:href="#DejaVuSans-ab" transform="translate(819.25 0)"/>
      <use xlink:href="#DejaVuSans-48" transform="translate(880.78125 0)"/>
      <use xlink:href="#DejaVuSans-3" transform="translate(942.3125 0)"/>
      <use xlink:href="#DejaVuSans-47" transform="translate(974.09375 0)"/>
      <use xlink:href="#DejaVuSans-a" transform="translate(1037.578125 0)"/>
      <use xlink:href="#DejaVuSans-4c" transform="translate(1065.0625 0)"/>
      <use xlink:href="#DejaVuSans-51" transform="translate(1092.84375 0)"/>
      <use xlink:href="#DejaVuSans-49" transform="translate(1156.21875 0)"/>
      <use xlink:href="#DejaVuSans-44" transform="translate(1191.421875 0)"/>
      <use xlink:href="#DejaVuSans-55" transform="translate(1252.703125 0)"/>
      <use xlink:href="#DejaVuSans-46" transform="translate(1291.609375 0)"/>
      <use xlink:href="#DejaVuSans-57" transform="translate(1346.59375 0)"/>
      <use xlink:href="#DejaVuSans-58" transform="translate(1385.796875 0)"/>
      <use xlink:href="#DejaVuSans-56" transform="translate(1449.171875 0)"/>
      <use xlink:href="#DejaVuSans-3" transform="translate(1501.265625 0)"/>
      <use xlink:href="#DejaVuSans-47" transform="translate(1533.046875 0)"/>
      <use xlink:href="#DejaVuSans-58" transform="translate(1596.53125 0)"/>
      <use xlink:href="#DejaVuSans-3" transform="translate(1659.90625 0)"/>
      <use xlink:href="#DejaVuSans-50" transform="translate(1691.6875 0)"/>
      <use xlink:href="#DejaVuSans-5c" transform="translate(1789.09375 0)"/>
      <use xlink:href="#DejaVuSans-52" transform="translate(1848.28125 0)"/>
      <use xlink:href="#DejaVuSans-46" transform="translate(1909.46875 0)"/>
      <use xlink:href="#DejaVuSans-44" transform="translate(1964.453125 0)"/>
      <use xlink:href="#DejaVuSans-55" transform="translate(2025.734375 0)"/>
      <use xlink:href="#DejaVuSans-47" transform="translate(2065.09375 0)"/>
      <use xlink:href="#DejaVuSans-48" transform="translate(2128.578125 0)"/>
      <use xlink:href="#DejaVuSans-3" transform="translate(2190.109375 0)"/>
      <use xlink:href="#DejaVuSans-b" transform="translate(2221.890625 0)"/>
      <use xlink:href="#DejaVuSans-53" transform="translate(2260.90625 0)"/>
      <use xlink:href="#DejaVuSans-52" transform="translate(2324.390625 0)"/>
      <use xlink:href="#DejaVuSans-51" transform="translate(2385.578125 0)"/>
      <use xlink:href="#DejaVuSans-47" transform="translate(2448.953125 0)"/>
      <use xlink:href="#DejaVuSans-ab" transform="translate(2512.4375 0)"/>
      <use xlink:href="#DejaVuSans-55" transform="translate(2573.96875 0)"/>
      <use xlink:href="#DejaVuSans-ab" transform="translate(2612.875 0)"/>
      <use xlink:href="#DejaVuSans-48" transform="translate(2674.40625 0)"/>
      <use xlink:href="#DejaVuSans-3" transform="translate(2735.9375 0)"/>
      <use xlink:href="#DejaVuSans-2c" transform="translate(2767.71875 0)"/>
      <use xlink:href="#DejaVuSans-33" transform="translate(2797.21875 0)"/>
      <use xlink:href="#DejaVuSans-37" transform="translate(2857.515625 0)"/>
      <use xlink:href="#DejaVuSans-3a" transform="translate(2918.59375 0)"/>
      <use xlink:href="#DejaVuSans-c" transform="translate(3017.46875 0)"/>
     </g>
    </g>
   </g>
   <g id="line2d_14">
    <path d="M 108.364091 306.547649 
L 115.870023 306.547649 
L 115.870023 294.011923 
L 123.375955 294.011923 
L 123.375955 273.484603 
L 130.881886 273.484603 
L 130.881886 261.856693 
L 138.387818 261.856693 
L 138.387818 261.856693 
L 145.89375 261.856693 
L 145.89375 257.68074 
L 153.399682 257.68074 
L 153.399682 247.433237 
L 160.905614 247.433237 
L 160.905614 247.433237 
L 168.411545 247.433237 
L 168.411545 244.525613 
L 175.917477 244.525613 
L 175.917477 242.821601 
L 183.423409 242.821601 
L 183.423409 240.625784 
L 190.929341 240.625784 
L 190.929341 237.954851 
L 198.435273 237.954851 
L 198.435273 232.04124 
L 205.941205 232.04124 
L 205.941205 227.845053 
L 213.447136 227.845053 
L 213.447136 225.610991 
L 220.953068 225.610991 
L 220.953068 223.19086 
L 228.459 223.19086 
L 228.459 218.898699 
L 235.964932 218.898699 
L 235.964932 216.347363 
L 243.470864 216.347363 
L 243.470864 214.894028 
L 258.482727 214.894028 
L 258.482727 214.894028 
L 265.988659 214.894028 
L 265.988659 213.307137 
L 273.494591 213.307137 
L 273.494591 204.429972 
L 281.000523 204.429972 
L 281.000523 204.429972 
L 288.506455 204.429972 
L 288.506455 204.429972 
L 296.012386 204.429972 
L 296.012386 204.429972 
L 303.518318 204.429972 
L 303.518318 196.338975 
L 311.02425 196.338975 
L 311.02425 191.845755 
L 318.530182 191.845755 
L 318.530182 188.762285 
L 326.036114 188.762285 
L 326.036114 186.677322 
L 333.542045 186.677322 
L 333.542045 183.452073 
L 341.047977 183.452073 
L 341.047977 183.452073 
L 348.553909 183.452073 
L 348.553909 177.984482 
L 356.059841 177.984482 
L 356.059841 170.213684 
L 363.565773 170.213684 
L 363.565773 168.308155 
L 371.071705 168.308155 
L 371.071705 166.362394 
L 378.577636 166.362394 
L 378.577636 162.847419 
L 386.083568 162.847419 
L 386.083568 157.528119 
L 393.5895 157.528119 
L 393.5895 157.528119 
L 401.095432 157.528119 
L 401.095432 157.528119 
L 408.601364 157.528119 
L 408.601364 154.977351 
L 416.107295 154.977351 
L 416.107295 154.977351 
L 423.613227 154.977351 
L 423.613227 154.977351 
L 431.119159 154.977351 
L 431.119159 153.470666 
L 438.625091 153.470666 
L 438.625091 151.609824 
L 446.131023 151.609824 
L 446.131023 147.574058 
L 453.636955 147.574058 
L 453.636955 147.574058 
L 461.142886 147.574058 
L 461.142886 147.574058 
L 468.648818 147.574058 
L 468.648818 141.391906 
L 476.15475 141.391906 
L 476.15475 137.155221 
L 483.660682 137.155221 
L 483.660682 131.509332 
L 491.166614 131.509332 
L 491.166614 129.376167 
L 498.672545 129.376167 
L 498.672545 123.614261 
L 506.178477 123.614261 
L 506.178477 120.664023 
L 513.684409 120.664023 
L 513.684409 119.157236 
L 521.190341 119.157236 
L 521.190341 107.264466 
L 528.696273 107.264466 
L 528.696273 103.884785 
L 536.202205 103.884785 
L 536.202205 101.979462 
L 543.708136 101.979462 
L 543.708136 100.466806 
L 551.214068 100.466806 
L 551.214068 97.653926 
L 558.72 97.653926 
L 558.72 94.860239 
" clip-path="url(#pa28136cd57)" style="fill: none; stroke: #c0392b; stroke-width: 1.5; stroke-linecap: square"/>
   </g>
   <g id="line2d_15">
    <path d="M 108.364091 306.547649 
L 115.870023 306.547649 
L 115.870023 302.999321 
L 123.375955 302.999321 
L 123.375955 301.919058 
L 130.881886 301.919058 
L 130.881886 301.919058 
L 138.387818 301.919058 
L 138.387818 298.370798 
L 145.89375 298.370798 
L 145.89375 298.370798 
L 153.399682 298.370798 
L 153.399682 298.370798 
L 160.905614 298.370798 
L 160.905614 297.134047 
L 168.411545 297.134047 
L 168.411545 293.957808 
L 175.917477 293.957808 
L 175.917477 292.860148 
L 183.423409 292.860148 
L 183.423409 289.471446 
L 190.929341 289.471446 
L 190.929341 288.385319 
L 198.435273 288.385319 
L 198.435273 287.157707 
L 205.941205 287.157707 
L 205.941205 287.157707 
L 213.447136 287.157707 
L 213.447136 287.157707 
L 220.953068 287.157707 
L 220.953068 283.580357 
L 228.459 283.580357 
L 228.459 283.580357 
L 235.964932 283.580357 
L 235.964932 282.637337 
L 243.470864 282.637337 
L 243.470864 275.705119 
L 250.976795 275.705119 
L 250.976795 271.749059 
L 258.482727 271.749059 
L 258.482727 266.608641 
L 265.988659 266.608641 
L 265.988659 262.248801 
L 273.494591 262.248801 
L 273.494591 261.023597 
L 281.000523 261.023597 
L 281.000523 261.023597 
L 288.506455 261.023597 
L 288.506455 255.489036 
L 296.012386 255.489036 
L 296.012386 254.419437 
L 303.518318 254.419437 
L 303.518318 254.419437 
L 311.02425 254.419437 
L 311.02425 252.698442 
L 318.530182 252.698442 
L 318.530182 249.316625 
L 326.036114 249.316625 
L 326.036114 247.768964 
L 333.542045 247.768964 
L 333.542045 246.409137 
L 341.047977 246.409137 
L 341.047977 245.344837 
L 348.553909 245.344837 
L 348.553909 245.344837 
L 356.059841 245.344837 
L 356.059841 243.901093 
L 363.565773 243.901093 
L 363.565773 243.901093 
L 371.071705 243.901093 
L 371.071705 242.718704 
L 378.577636 242.718704 
L 378.577636 238.960744 
L 386.083568 238.960744 
L 386.083568 235.922111 
L 393.5895 235.922111 
L 393.5895 234.88629 
L 401.095432 234.88629 
L 401.095432 233.027302 
L 408.601364 233.027302 
L 408.601364 233.027302 
L 416.107295 233.027302 
L 416.107295 230.568749 
L 423.613227 230.568749 
L 423.613227 227.411449 
L 431.119159 227.411449 
L 431.119159 223.048049 
L 438.625091 223.048049 
L 438.625091 221.979093 
L 446.131023 221.979093 
L 446.131023 219.481844 
L 453.636955 219.481844 
L 453.636955 216.408933 
L 461.142886 216.408933 
L 461.142886 214.234707 
L 468.648818 214.234707 
L 468.648818 212.778274 
L 476.15475 212.778274 
L 476.15475 210.322704 
L 483.660682 210.322704 
L 483.660682 208.928531 
L 491.166614 208.928531 
L 491.166614 204.942026 
L 498.672545 204.942026 
L 498.672545 204.942026 
L 506.178477 204.942026 
L 506.178477 204.942026 
L 513.684409 204.942026 
L 513.684409 204.942026 
L 521.190341 204.942026 
L 521.190341 203.854045 
L 528.696273 203.854045 
L 528.696273 199.122843 
L 536.202205 199.122843 
L 536.202205 193.43861 
L 543.708136 193.43861 
L 543.708136 191.083726 
L 551.214068 191.083726 
L 551.214068 185.07653 
L 558.72 185.07653 
L 558.72 183.701689 
" clip-path="url(#pa28136cd57)" style="fill: none; stroke: #1f5fa8; stroke-width: 1.5; stroke-linecap: square"/>
   </g>
   <g id="patch_3">
    <path d="M 108.364091 319.865156 
L 108.364091 26.88 
" style="fill: none; stroke: #000000; stroke-width: 0.8; stroke-linejoin: miter; stroke-linecap: square"/>
   </g>
   <g id="patch_4">
    <path d="M 558.72 319.865156 
L 558.72 26.88 
" style="fill: none; stroke: #000000; stroke-width: 0.8; stroke-linejoin: miter; stroke-linecap: square"/>
   </g>
   <g id="patch_5">
    <path d="M 108.364091 319.865156 
L 558.72 319.865156 
" style="fill: none; stroke: #000000; stroke-width: 0.8; stroke-linejoin: miter; stroke-linecap: square"/>
   </g>
   <g id="patch_6">
    <path d="M 108.364091 26.88 
L 558.72 26.88 
" style="fill: none; stroke: #000000; stroke-width: 0.8; stroke-linejoin: miter; stroke-linecap: square"/>
   </g>
   <g id="text_16">
    <!-- Figure 2 : incidence cumulée d'infarctus du myocarde à 60 jours, par bras -->
    <g transform="translate(111.84392 20.88) scale(0.12 -0.12)">
     <defs>
      <path id="DejaVuSans-29" d="M 628 4666 
L 3309 4666 
L 3309 4134 
L 1259 4134 
L 1259 2759 
L 3109 2759 
L 3109 2228 
L 1259 2228 
L 1259 0 
L 628 0 
L 628 4666 
z
" transform="scale(0.015625)"/>
      <path id="DejaVuSans-4a" d="M 2906 1791 
Q 2906 2416 2648 2759 
Q 2391 3103 1925 3103 
Q 1463 3103 1205 2759 
Q 947 2416 947 1791 
Q 947 1169 1205 825 
Q 1463 481 1925 481 
Q 2391 481 2648 825 
Q 2906 1169 2906 1791 
z
M 3481 434 
Q 3481 -459 3084 -895 
Q 2688 -1331 1869 -1331 
Q 1566 -1331 1297 -1286 
Q 1028 -1241 775 -1147 
L 775 -588 
Q 1028 -725 1275 -790 
Q 1522 -856 1778 -856 
Q 2344 -856 2625 -561 
Q 2906 -266 2906 331 
L 2906 616 
Q 2728 306 2450 153 
Q 2172 0 1784 0 
Q 1141 0 747 490 
Q 353 981 353 1791 
Q 353 2603 747 3093 
Q 1141 3584 1784 3584 
Q 2172 3584 2450 3431 
Q 2728 3278 2906 2969 
L 2906 3500 
L 3481 3500 
L 3481 434 
z
" transform="scale(0.015625)"/>
      <path id="DejaVuSans-1d" d="M 750 794 
L 1409 794 
L 1409 0 
L 750 0 
L 750 794 
z
M 750 3309 
L 1409 3309 
L 1409 2516 
L 750 2516 
L 750 3309 
z
" transform="scale(0.015625)"/>
      <path id="DejaVuSans-a2" d="M 2194 1759 
Q 1497 1759 1228 1600 
Q 959 1441 959 1056 
Q 959 750 1161 570 
Q 1363 391 1709 391 
Q 2188 391 2477 730 
Q 2766 1069 2766 1631 
L 2766 1759 
L 2194 1759 
z
M 3341 1997 
L 3341 0 
L 2766 0 
L 2766 531 
Q 2569 213 2275 61 
Q 1981 -91 1556 -91 
Q 1019 -91 701 211 
Q 384 513 384 1019 
Q 384 1609 779 1909 
Q 1175 2209 1959 2209 
L 2766 2209 
L 2766 2266 
Q 2766 2663 2505 2880 
Q 2244 3097 1772 3097 
Q 1472 3097 1187 3025 
Q 903 2953 641 2809 
L 641 3341 
Q 956 3463 1253 3523 
Q 1550 3584 1831 3584 
Q 2591 3584 2966 3190 
Q 3341 2797 3341 1997 
z
M 1403 5119 
L 2284 3950 
L 1806 3950 
L 787 5119 
L 1403 5119 
z
" transform="scale(0.015625)"/>
      <path id="DejaVuSans-4d" d="M 603 3500 
L 1178 3500 
L 1178 -63 
Q 1178 -731 923 -1031 
Q 669 -1331 103 -1331 
L -116 -1331 
L -116 -844 
L 38 -844 
Q 366 -844 484 -692 
Q 603 -541 603 -63 
L 603 3500 
z
M 603 4863 
L 1178 4863 
L 1178 4134 
L 603 4134 
L 603 4863 
z
" transform="scale(0.015625)"/>
      <path id="DejaVuSans-f" d="M 750 794 
L 1409 794 
L 1409 256 
L 897 -744 
L 494 -744 
L 750 256 
L 750 794 
z
" transform="scale(0.015625)"/>
      <path id="DejaVuSans-45" d="M 3116 1747 
Q 3116 2381 2855 2742 
Q 2594 3103 2138 3103 
Q 1681 3103 1420 2742 
Q 1159 2381 1159 1747 
Q 1159 1113 1420 752 
Q 1681 391 2138 391 
Q 2594 391 2855 752 
Q 3116 1113 3116 1747 
z
M 1159 2969 
Q 1341 3281 1617 3432 
Q 1894 3584 2278 3584 
Q 2916 3584 3314 3078 
Q 3713 2572 3713 1747 
Q 3713 922 3314 415 
Q 2916 -91 2278 -91 
Q 1894 -91 1617 61 
Q 1341 213 1159 525 
L 1159 0 
L 581 0 
L 581 4863 
L 1159 4863 
L 1159 2969 
z
" transform="scale(0.015625)"/>
     </defs>
     <use xlink:href="#DejaVuSans-29"/>
     <use xlink:href="#DejaVuSans-4c" transform="translate(50.234375 0)"/>
     <use xlink:href="#DejaVuSans-4a" transform="translate(78.015625 0)"/>
     <use xlink:href="#DejaVuSans-58" transform="translate(141.5 0)"/>
     <use xlink:href="#DejaVuSans-55" transform="translate(204.875 0)"/>
     <use xlink:href="#DejaVuSans-48" transform="translate(243.78125 0)"/>
     <use xlink:href="#DejaVuSans-3" transform="translate(305.3125 0)"/>
     <use xlink:href="#DejaVuSans-15" transform="translate(337.09375 0)"/>
     <use xlink:href="#DejaVuSans-3" transform="translate(400.71875 0)"/>
     <use xlink:href="#DejaVuSans-1d" transform="translate(432.5 0)"/>
     <use xlink:href="#DejaVuSans-3" transform="translate(466.1875 0)"/>
     <use xlink:href="#DejaVuSans-4c" transform="translate(497.96875 0)"/>
     <use xlink:href="#DejaVuSans-51" transform="translate(525.75 0)"/>
     <use xlink:href="#DejaVuSans-46" transform="translate(589.125 0)"/>
     <use xlink:href="#DejaVuSans-4c" transform="translate(644.109375 0)"/>
     <use xlink:href="#DejaVuSans-47" transform="translate(671.890625 0)"/>
     <use xlink:href="#DejaVuSans-48" transform="translate(735.375 0)"/>
     <use xlink:href="#DejaVuSans-51" transform="translate(796.90625 0)"/>
     <use xlink:href="#DejaVuSans-46" transform="translate(860.28125 0)"/>
     <use xlink:href="#DejaVuSans-48" transform="translate(915.265625 0)"/>
     <use xlink:href="#DejaVuSans-3" transform="translate(976.796875 0)"/>
     <use xlink:href="#DejaVuSans-46" transform="translate(1008.578125 0)"/>
     <use xlink:href="#DejaVuSans-58" transform="translate(1063.5625 0)"/>
     <use xlink:href="#DejaVuSans-50" transform="translate(1126.9375 0)"/>
     <use xlink:href="#DejaVuSans-58" transform="translate(1224.34375 0)"/>
     <use xlink:href="#DejaVuSans-4f" transform="translate(1287.71875 0)"/>
     <use xlink:href="#DejaVuSans-ab" transform="translate(1315.5 0)"/>
     <use xlink:href="#DejaVuSans-48" transform="translate(1377.03125 0)"/>
     <use xlink:href="#DejaVuSans-3" transform="translate(1438.5625 0)"/>
     <use xlink:href="#DejaVuSans-47" transform="translate(1470.34375 0)"/>
     <use xlink:href="#DejaVuSans-a" transform="translate(1533.828125 0)"/>
     <use xlink:href="#DejaVuSans-4c" transform="translate(1561.3125 0)"/>
     <use xlink:href="#DejaVuSans-51" transform="translate(1589.09375 0)"/>
     <use xlink:href="#DejaVuSans-49" transform="translate(1652.46875 0)"/>
     <use xlink:href="#DejaVuSans-44" transform="translate(1687.671875 0)"/>
     <use xlink:href="#DejaVuSans-55" transform="translate(1748.953125 0)"/>
     <use xlink:href="#DejaVuSans-46" transform="translate(1787.859375 0)"/>
     <use xlink:href="#DejaVuSans-57" transform="translate(1842.84375 0)"/>
     <use xlink:href="#DejaVuSans-58" transform="translate(1882.046875 0)"/>
     <use xlink:href="#DejaVuSans-56" transform="translate(1945.421875 0)"/>
     <use xlink:href="#DejaVuSans-3" transform="translate(1997.515625 0)"/>
     <use xlink:href="#DejaVuSans-47" transform="translate(2029.296875 0)"/>
     <use xlink:href="#DejaVuSans-58" transform="translate(2092.78125 0)"/>
     <use xlink:href="#DejaVuSans-3" transform="translate(2156.15625 0)"/>
     <use xlink:href="#DejaVuSans-50" transform="translate(2187.9375 0)"/>
     <use xlink:href="#DejaVuSans-5c" transform="translate(2285.34375 0)"/>
     <use xlink:href="#DejaVuSans-52" transform="translate(2344.53125 0)"/>
     <use xlink:href="#DejaVuSans-46" transform="translate(2405.71875 0)"/>
     <use xlink:href="#DejaVuSans-44" transform="translate(2460.703125 0)"/>
     <use xlink:href="#DejaVuSans-55" transform="translate(2521.984375 0)"/>
     <use xlink:href="#DejaVuSans-47" transform="translate(2561.34375 0)"/>
     <use xlink:href="#DejaVuSans-48" transform="translate(2624.828125 0)"/>
     <use xlink:href="#DejaVuSans-3" transform="translate(2686.359375 0)"/>
     <use xlink:href="#DejaVuSans-a2" transform="translate(2718.140625 0)"/>
     <use xlink:href="#DejaVuSans-3" transform="translate(2779.421875 0)"/>
     <use xlink:href="#DejaVuSans-19" transform="translate(2811.203125 0)"/>
     <use xlink:href="#DejaVuSans-13" transform="translate(2874.828125 0)"/>
     <use xlink:href="#DejaVuSans-3" transform="translate(2938.453125 0)"/>
     <use xlink:href="#DejaVuSans-4d" transform="translate(2970.234375 0)"/>
     <use xlink:href="#DejaVuSans-52" transform="translate(2998.015625 0)"/>
     <use xlink:href="#DejaVuSans-58" transform="translate(3059.203125 0)"/>
     <use xlink:href="#DejaVuSans-55" transform="translate(3122.578125 0)"/>
     <use xlink:href="#DejaVuSans-56" transform="translate(3163.6875 0)"/>
     <use xlink:href="#DejaVuSans-f" transform="translate(3215.78125 0)"/>
     <use xlink:href="#DejaVuSans-3" transform="translate(3247.5625 0)"/>
     <use xlink:href="#DejaVuSans-53" transform="translate(3279.34375 0)"/>
     <use xlink:href="#DejaVuSans-44" transform="translate(3342.828125 0)"/>
     <use xlink:href="#DejaVuSans-55" transform="translate(3404.109375 0)"/>
     <use xlink:href="#DejaVuSans-3" transform="translate(3445.21875 0)"/>
     <use xlink:href="#DejaVuSans-45" transform="translate(3477 0)"/>
     <use xlink:href="#DejaVuSans-55" transform="translate(3540.484375 0)"/>
     <use xlink:href="#DejaVuSans-44" transform="translate(3581.59375 0)"/>
     <use xlink:href="#DejaVuSans-56" transform="translate(3642.875 0)"/>
    </g>
   </g>
   <g id="legend_1">
    <g id="patch_7">
     <path d="M 115.364091 65.281563 
L 227.667216 65.281563 
Q 229.667216 65.281563 229.667216 63.281563 
L 229.667216 33.88 
Q 229.667216 31.88 227.667216 31.88 
L 115.364091 31.88 
Q 113.364091 31.88 113.364091 33.88 
L 113.364091 63.281563 
Q 113.364091 65.281563 115.364091 65.281563 
z
" style="fill: #ffffff; opacity: 0.8; stroke: #cccccc; stroke-linejoin: miter"/>
    </g>
    <g id="line2d_16">
     <path d="M 117.364091 39.978437 
L 127.364091 39.978437 
L 127.364091 39.978437 
L 137.364091 39.978437 
L 137.364091 39.978437 
" style="fill: none; stroke: #c0392b; stroke-width: 1.5; stroke-linecap: square"/>
    </g>
    <g id="text_17">
     <!-- Fluoroquinolone -->
     <g transform="translate(145.364091 43.478437) scale(0.1 -0.1)">
      <defs>
       <path id="DejaVuSans-54" d="M 947 1747 
Q 947 1113 1208 752 
Q 1469 391 1925 391 
Q 2381 391 2643 752 
Q 2906 1113 2906 1747 
Q 2906 2381 2643 2742 
Q 2381 3103 1925 3103 
Q 1469 3103 1208 2742 
Q 947 2381 947 1747 
z
M 2906 525 
Q 2725 213 2448 61 
Q 2172 -91 1784 -91 
Q 1150 -91 751 415 
Q 353 922 353 1747 
Q 353 2572 751 3078 
Q 1150 3584 1784 3584 
Q 2172 3584 2448 3432 
Q 2725 3281 2906 2969 
L 2906 3500 
L 3481 3500 
L 3481 -1331 
L 2906 -1331 
L 2906 525 
z
" transform="scale(0.015625)"/>
      </defs>
      <use xlink:href="#DejaVuSans-29"/>
      <use xlink:href="#DejaVuSans-4f" transform="translate(57.515625 0)"/>
      <use xlink:href="#DejaVuSans-58" transform="translate(85.296875 0)"/>
      <use xlink:href="#DejaVuSans-52" transform="translate(148.671875 0)"/>
      <use xlink:href="#DejaVuSans-55" transform="translate(209.859375 0)"/>
      <use xlink:href="#DejaVuSans-52" transform="translate(248.765625 0)"/>
      <use xlink:href="#DejaVuSans-54" transform="translate(309.953125 0)"/>
      <use xlink:href="#DejaVuSans-58" transform="translate(373.4375 0)"/>
      <use xlink:href="#DejaVuSans-4c" transform="translate(436.8125 0)"/>
      <use xlink:href="#DejaVuSans-51" transform="translate(464.59375 0)"/>
      <use xlink:href="#DejaVuSans-52" transform="translate(527.96875 0)"/>
      <use xlink:href="#DejaVuSans-4f" transform="translate(589.15625 0)"/>
      <use xlink:href="#DejaVuSans-52" transform="translate(616.9375 0)"/>
      <use xlink:href="#DejaVuSans-51" transform="translate(678.125 0)"/>
      <use xlink:href="#DejaVuSans-48" transform="translate(741.5 0)"/>
     </g>
    </g>
    <g id="line2d_17">
     <path d="M 117.364091 55.379219 
L 127.364091 55.379219 
L 127.364091 55.379219 
L 137.364091 55.379219 
L 137.364091 55.379219 
" style="fill: none; stroke: #1f5fa8; stroke-width: 1.5; stroke-linecap: square"/>
    </g>
    <g id="text_18">
     <!-- Bêta-lactamine -->
     <g transform="translate(145.364091 58.879219) scale(0.1 -0.1)">
      <defs>
       <path id="DejaVuSans-25" d="M 1259 2228 
L 1259 519 
L 2272 519 
Q 2781 519 3026 730 
Q 3272 941 3272 1375 
Q 3272 1813 3026 2020 
Q 2781 2228 2272 2228 
L 1259 2228 
z
M 1259 4147 
L 1259 2741 
L 2194 2741 
Q 2656 2741 2882 2914 
Q 3109 3088 3109 3444 
Q 3109 3797 2882 3972 
Q 2656 4147 2194 4147 
L 1259 4147 
z
M 628 4666 
L 2241 4666 
Q 2963 4666 3353 4366 
Q 3744 4066 3744 3513 
Q 3744 3084 3544 2831 
Q 3344 2578 2956 2516 
Q 3422 2416 3680 2098 
Q 3938 1781 3938 1306 
Q 3938 681 3513 340 
Q 3088 0 2303 0 
L 628 0 
L 628 4666 
z
" transform="scale(0.015625)"/>
       <path id="DejaVuSans-ac" d="M 3597 1894 
L 3597 1613 
L 953 1613 
Q 991 1019 1311 708 
Q 1631 397 2203 397 
Q 2534 397 2845 478 
Q 3156 559 3463 722 
L 3463 178 
Q 3153 47 2828 -22 
Q 2503 -91 2169 -91 
Q 1331 -91 842 396 
Q 353 884 353 1716 
Q 353 2575 817 3079 
Q 1281 3584 2069 3584 
Q 2775 3584 3186 3129 
Q 3597 2675 3597 1894 
z
M 3022 2063 
Q 3016 2534 2758 2815 
Q 2500 3097 2075 3097 
Q 1594 3097 1305 2825 
Q 1016 2553 972 2059 
L 3022 2063 
z
M 1803 5119 
L 2265 5119 
L 3031 3944 
L 2597 3944 
L 2034 4709 
L 1472 3944 
L 1037 3944 
L 1803 5119 
z
" transform="scale(0.015625)"/>
       <path id="DejaVuSans-10" d="M 313 2009 
L 1997 2009 
L 1997 1497 
L 313 1497 
L 313 2009 
z
" transform="scale(0.015625)"/>
      </defs>
      <use xlink:href="#DejaVuSans-25"/>
      <use xlink:href="#DejaVuSans-ac" transform="translate(68.609375 0)"/>
      <use xlink:href="#DejaVuSans-57" transform="translate(130.140625 0)"/>
      <use xlink:href="#DejaVuSans-44" transform="translate(169.34375 0)"/>
      <use xlink:href="#DejaVuSans-10" transform="translate(230.625 0)"/>
      <use xlink:href="#DejaVuSans-4f" transform="translate(266.703125 0)"/>
      <use xlink:href="#DejaVuSans-44" transform="translate(294.484375 0)"/>
      <use xlink:href="#DejaVuSans-46" transform="translate(355.765625 0)"/>
      <use xlink:href="#DejaVuSans-57" transform="translate(410.75 0)"/>
      <use xlink:href="#DejaVuSans-44" transform="translate(449.953125 0)"/>
      <use xlink:href="#DejaVuSans-50" transform="translate(511.234375 0)"/>
      <use xlink:href="#DejaVuSans-4c" transform="translate(608.640625 0)"/>
      <use xlink:href="#DejaVuSans-51" transform="translate(636.421875 0)"/>
      <use xlink:href="#DejaVuSans-48" transform="translate(699.796875 0)"/>
     </g>
    </g>
   </g>
  </g>
  <g id="axes_2">
   <g id="matplotlib.axis_3">
    <g id="xtick_8">
     <g id="text_19">
      <!-- À risque -->
      <g transform="translate(87.878564 375.189591) scale(0.1 -0.1)">
       <defs>
        <path id="DejaVuSans-82" d="M 2188 4044 
L 1331 1722 
L 3047 1722 
L 2188 4044 
z
M 1831 4666 
L 2547 4666 
L 4325 0 
L 3669 0 
L 3244 1197 
L 1141 1197 
L 716 0 
L 50 0 
L 1831 4666 
z
M 2010 5935 
L 2622 5110 
L 2144 5110 
L 1425 5935 
L 2010 5935 
z
" transform="scale(0.015625)"/>
       </defs>
       <use xlink:href="#DejaVuSans-82"/>
       <use xlink:href="#DejaVuSans-3" transform="translate(68.40625 0)"/>
       <use xlink:href="#DejaVuSans-55" transform="translate(100.1875 0)"/>
       <use xlink:href="#DejaVuSans-4c" transform="translate(141.296875 0)"/>
       <use xlink:href="#DejaVuSans-56" transform="translate(169.078125 0)"/>
       <use xlink:href="#DejaVuSans-54" transform="translate(221.171875 0)"/>
       <use xlink:href="#DejaVuSans-58" transform="translate(284.65625 0)"/>
       <use xlink:href="#DejaVuSans-48" transform="translate(348.03125 0)"/>
      </g>
      <!-- Fluoroquinolone   3396 -->
      <g transform="translate(13.547314 387.192325) scale(0.1 -0.1)">
       <defs>
        <path id="DejaVuSans-1c" d="M 703 97 
L 703 672 
Q 941 559 1184 500 
Q 1428 441 1663 441 
Q 2288 441 2617 861 
Q 2947 1281 2994 2138 
Q 2813 1869 2534 1725 
Q 2256 1581 1919 1581 
Q 1219 1581 811 2004 
Q 403 2428 403 3163 
Q 403 3881 828 4315 
Q 1253 4750 1959 4750 
Q 2769 4750 3195 4129 
Q 3622 3509 3622 2328 
Q 3622 1225 3098 567 
Q 2575 -91 1691 -91 
Q 1453 -91 1209 -44 
Q 966 3 703 97 
z
M 1959 2075 
Q 2384 2075 2632 2365 
Q 2881 2656 2881 3163 
Q 2881 3666 2632 3958 
Q 2384 4250 1959 4250 
Q 1534 4250 1286 3958 
Q 1038 3666 1038 3163 
Q 1038 2656 1286 2365 
Q 1534 2075 1959 2075 
z
" transform="scale(0.015625)"/>
       </defs>
       <use xlink:href="#DejaVuSans-29"/>
       <use xlink:href="#DejaVuSans-4f" transform="translate(57.515625 0)"/>
       <use xlink:href="#DejaVuSans-58" transform="translate(85.296875 0)"/>
       <use xlink:href="#DejaVuSans-52" transform="translate(148.671875 0)"/>
       <use xlink:href="#DejaVuSans-55" transform="translate(209.859375 0)"/>
       <use xlink:href="#DejaVuSans-52" transform="translate(248.765625 0)"/>
       <use xlink:href="#DejaVuSans-54" transform="translate(309.953125 0)"/>
       <use xlink:href="#DejaVuSans-58" transform="translate(373.4375 0)"/>
       <use xlink:href="#DejaVuSans-4c" transform="translate(436.8125 0)"/>
       <use xlink:href="#DejaVuSans-51" transform="translate(464.59375 0)"/>
       <use xlink:href="#DejaVuSans-52" transform="translate(527.96875 0)"/>
       <use xlink:href="#DejaVuSans-4f" transform="translate(589.15625 0)"/>
       <use xlink:href="#DejaVuSans-52" transform="translate(616.9375 0)"/>
       <use xlink:href="#DejaVuSans-51" transform="translate(678.125 0)"/>
       <use xlink:href="#DejaVuSans-48" transform="translate(741.5 0)"/>
       <use xlink:href="#DejaVuSans-3" transform="translate(803.03125 0)"/>
       <use xlink:href="#DejaVuSans-3" transform="translate(834.8125 0)"/>
       <use xlink:href="#DejaVuSans-3" transform="translate(866.59375 0)"/>
       <use xlink:href="#DejaVuSans-16" transform="translate(898.375 0)"/>
       <use xlink:href="#DejaVuSans-16" transform="translate(962 0)"/>
       <use xlink:href="#DejaVuSans-1c" transform="translate(1025.625 0)"/>
       <use xlink:href="#DejaVuSans-19" transform="translate(1089.25 0)"/>
      </g>
      <!-- Bêta-lactamine   8560 -->
      <g transform="translate(17.717627 399.595059) scale(0.1 -0.1)">
       <defs>
        <path id="DejaVuSans-1b" d="M 2034 2216 
Q 1584 2216 1326 1975 
Q 1069 1734 1069 1313 
Q 1069 891 1326 650 
Q 1584 409 2034 409 
Q 2484 409 2743 651 
Q 3003 894 3003 1313 
Q 3003 1734 2745 1975 
Q 2488 2216 2034 2216 
z
M 1403 2484 
Q 997 2584 770 2862 
Q 544 3141 544 3541 
Q 544 4100 942 4425 
Q 1341 4750 2034 4750 
Q 2731 4750 3128 4425 
Q 3525 4100 3525 3541 
Q 3525 3141 3298 2862 
Q 3072 2584 2669 2484 
Q 3125 2378 3379 2068 
Q 3634 1759 3634 1313 
Q 3634 634 3220 271 
Q 2806 -91 2034 -91 
Q 1263 -91 848 271 
Q 434 634 434 1313 
Q 434 1759 690 2068 
Q 947 2378 1403 2484 
z
M 1172 3481 
Q 1172 3119 1398 2916 
Q 1625 2713 2034 2713 
Q 2441 2713 2670 2916 
Q 2900 3119 2900 3481 
Q 2900 3844 2670 4047 
Q 2441 4250 2034 4250 
Q 1625 4250 1398 4047 
Q 1172 3844 1172 3481 
z
" transform="scale(0.015625)"/>
       </defs>
       <use xlink:href="#DejaVuSans-25"/>
       <use xlink:href="#DejaVuSans-ac" transform="translate(68.609375 0)"/>
       <use xlink:href="#DejaVuSans-57" transform="translate(130.140625 0)"/>
       <use xlink:href="#DejaVuSans-44" transform="translate(169.34375 0)"/>
       <use xlink:href="#DejaVuSans-10" transform="translate(230.625 0)"/>
       <use xlink:href="#DejaVuSans-4f" transform="translate(266.703125 0)"/>
       <use xlink:href="#DejaVuSans-44" transform="translate(294.484375 0)"/>
       <use xlink:href="#DejaVuSans-46" transform="translate(355.765625 0)"/>
       <use xlink:href="#DejaVuSans-57" transform="translate(410.75 0)"/>
       <use xlink:href="#DejaVuSans-44" transform="translate(449.953125 0)"/>
       <use xlink:href="#DejaVuSans-50" transform="translate(511.234375 0)"/>
       <use xlink:href="#DejaVuSans-4c" transform="translate(608.640625 0)"/>
       <use xlink:href="#DejaVuSans-51" transform="translate(636.421875 0)"/>
       <use xlink:href="#DejaVuSans-48" transform="translate(699.796875 0)"/>
       <use xlink:href="#DejaVuSans-3" transform="translate(761.328125 0)"/>
       <use xlink:href="#DejaVuSans-3" transform="translate(793.109375 0)"/>
       <use xlink:href="#DejaVuSans-3" transform="translate(824.890625 0)"/>
       <use xlink:href="#DejaVuSans-1b" transform="translate(856.671875 0)"/>
       <use xlink:href="#DejaVuSans-18" transform="translate(920.296875 0)"/>
       <use xlink:href="#DejaVuSans-19" transform="translate(983.921875 0)"/>
       <use xlink:href="#DejaVuSans-13" transform="translate(1047.546875 0)"/>
      </g>
      <!--  -->
      <g transform="translate(128.834814 411.597012) scale(0.1 -0.1)"/>
     </g>
    </g>
    <g id="xtick_9">
     <g id="text_20">
      <!--  -->
      <g transform="translate(197.070558 373.513809) scale(0.1 -0.1)"/>
      <!-- 3336 -->
      <g transform="translate(171.620558 385.515762) scale(0.1 -0.1)">
       <use xlink:href="#DejaVuSans-16"/>
       <use xlink:href="#DejaVuSans-16" transform="translate(63.625 0)"/>
       <use xlink:href="#DejaVuSans-16" transform="translate(127.25 0)"/>
       <use xlink:href="#DejaVuSans-19" transform="translate(190.875 0)"/>
      </g>
      <!-- 8468 -->
      <g transform="translate(171.620558 397.517716) scale(0.1 -0.1)">
       <use xlink:href="#DejaVuSans-1b"/>
       <use xlink:href="#DejaVuSans-17" transform="translate(63.625 0)"/>
       <use xlink:href="#DejaVuSans-19" transform="translate(127.25 0)"/>
       <use xlink:href="#DejaVuSans-1b" transform="translate(190.875 0)"/>
      </g>
     </g>
    </g>
    <g id="xtick_10">
     <g id="text_21">
      <!--  -->
      <g transform="translate(265.306302 373.513809) scale(0.1 -0.1)"/>
      <!-- 3286 -->
      <g transform="translate(239.856302 385.515762) scale(0.1 -0.1)">
       <use xlink:href="#DejaVuSans-16"/>
       <use xlink:href="#DejaVuSans-15" transform="translate(63.625 0)"/>
       <use xlink:href="#DejaVuSans-1b" transform="translate(127.25 0)"/>
       <use xlink:href="#DejaVuSans-19" transform="translate(190.875 0)"/>
      </g>
      <!-- 8368 -->
      <g transform="translate(239.856302 397.517716) scale(0.1 -0.1)">
       <use xlink:href="#DejaVuSans-1b"/>
       <use xlink:href="#DejaVuSans-16" transform="translate(63.625 0)"/>
       <use xlink:href="#DejaVuSans-19" transform="translate(127.25 0)"/>
       <use xlink:href="#DejaVuSans-1b" transform="translate(190.875 0)"/>
      </g>
     </g>
    </g>
    <g id="xtick_11">
     <g id="text_22">
      <!--  -->
      <g transform="translate(333.542045 373.513809) scale(0.1 -0.1)"/>
      <!-- 3238 -->
      <g transform="translate(308.092045 385.515762) scale(0.1 -0.1)">
       <use xlink:href="#DejaVuSans-16"/>
       <use xlink:href="#DejaVuSans-15" transform="translate(63.625 0)"/>
       <use xlink:href="#DejaVuSans-16" transform="translate(127.25 0)"/>
       <use xlink:href="#DejaVuSans-1b" transform="translate(190.875 0)"/>
      </g>
      <!-- 8260 -->
      <g transform="translate(308.092045 397.517716) scale(0.1 -0.1)">
       <use xlink:href="#DejaVuSans-1b"/>
       <use xlink:href="#DejaVuSans-15" transform="translate(63.625 0)"/>
       <use xlink:href="#DejaVuSans-19" transform="translate(127.25 0)"/>
       <use xlink:href="#DejaVuSans-13" transform="translate(190.875 0)"/>
      </g>
     </g>
    </g>
    <g id="xtick_12">
     <g id="text_23">
      <!--  -->
      <g transform="translate(401.777789 373.513809) scale(0.1 -0.1)"/>
      <!-- 3191 -->
      <g transform="translate(376.327789 385.515762) scale(0.1 -0.1)">
       <use xlink:href="#DejaVuSans-16"/>
       <use xlink:href="#DejaVuSans-14" transform="translate(63.625 0)"/>
       <use xlink:href="#DejaVuSans-1c" transform="translate(127.25 0)"/>
       <use xlink:href="#DejaVuSans-14" transform="translate(190.875 0)"/>
      </g>
      <!-- 8168 -->
      <g transform="translate(376.327789 397.517716) scale(0.1 -0.1)">
       <use xlink:href="#DejaVuSans-1b"/>
       <use xlink:href="#DejaVuSans-14" transform="translate(63.625 0)"/>
       <use xlink:href="#DejaVuSans-19" transform="translate(127.25 0)"/>
       <use xlink:href="#DejaVuSans-1b" transform="translate(190.875 0)"/>
      </g>
     </g>
    </g>
    <g id="xtick_13">
     <g id="text_24">
      <!--  -->
      <g transform="translate(470.013533 373.513809) scale(0.1 -0.1)"/>
      <!-- 3155 -->
      <g transform="translate(444.563533 385.515762) scale(0.1 -0.1)">
       <use xlink:href="#DejaVuSans-16"/>
       <use xlink:href="#DejaVuSans-14" transform="translate(63.625 0)"/>
       <use xlink:href="#DejaVuSans-18" transform="translate(127.25 0)"/>
       <use xlink:href="#DejaVuSans-18" transform="translate(190.875 0)"/>
      </g>
      <!-- 8069 -->
      <g transform="translate(444.563533 397.517716) scale(0.1 -0.1)">
       <use xlink:href="#DejaVuSans-1b"/>
       <use xlink:href="#DejaVuSans-13" transform="translate(63.625 0)"/>
       <use xlink:href="#DejaVuSans-19" transform="translate(127.25 0)"/>
       <use xlink:href="#DejaVuSans-1c" transform="translate(190.875 0)"/>
      </g>
     </g>
    </g>
    <g id="xtick_14">
     <g id="text_25">
      <!--  -->
      <g transform="translate(538.249277 373.513809) scale(0.1 -0.1)"/>
      <!-- 0 -->
      <g transform="translate(531.886777 385.515762) scale(0.1 -0.1)">
       <use xlink:href="#DejaVuSans-13"/>
      </g>
      <!-- 0 -->
      <g transform="translate(531.886777 397.517716) scale(0.1 -0.1)">
       <use xlink:href="#DejaVuSans-13"/>
      </g>
     </g>
    </g>
   </g>
  </g>
 </g>
 <defs>
  <clipPath id="pa28136cd57">
   <rect x="108.364091" y="26.88" width="450.355909" height="292.985156"/>
  </clipPath>
 </defs>
</svg>
